<?xml version="1.0" encoding="utf-8"?>
<!-- Generator: Adobe Illustrator 17.1.0, SVG Export Plug-In . SVG Version: 6.00 Build 0)  -->
<!DOCTYPE svg PUBLIC "-//W3C//DTD SVG 1.1//EN" "http://www.w3.org/Graphics/SVG/1.1/DTD/svg11.dtd">
<svg version="1.1" id="Layer_1" xmlns="http://www.w3.org/2000/svg" xmlns:xlink="http://www.w3.org/1999/xlink" x="0px" y="0px"
	 viewBox="15.4 15.4 69.2 69.2" enable-background="new 15.4 15.4 69.2 69.2" xml:space="preserve">
<g>
	<path fill="#FFFFFF" d="M41.5,34.2c2.1-2.3,5-3.4,8.8-3.4c3.4,0,6.2,1,8.3,2.9c2.1,1.9,3.1,4.4,3.1,7.4c0,1.8-0.4,3.3-1.1,4.4
		c-0.7,1.1-2.3,2.8-4.6,5c-1.7,1.6-2.8,3-3.3,4.1c-0.5,1.1-0.8,2.8-0.8,4.9h-4.6c0-2.5,0.3-4.4,0.9-6c0.6-1.5,1.9-3.2,3.9-5.2l2.1-2
		c0.6-0.6,1.1-1.2,1.5-1.8c0.7-1.1,1.1-2.3,1.1-3.5c0-1.7-0.5-3.2-1.5-4.4c-1-1.2-2.7-1.9-5.1-1.9c-2.9,0-5,1.1-6.1,3.2
		c-0.6,1.2-1,2.9-1.1,5.1h-4.6C38.3,39.4,39.4,36.4,41.5,34.2z M47.2,63.8h5.1v5.4h-5.1V63.8z"/>
</g>
<g>
	<path fill="#FFFFFF" d="M50,19.3C67,19.3,80.7,33,80.7,50S67,80.7,50,80.7C33,80.7,19.3,67,19.3,50S33,19.3,50,19.3 M50,15.4
		c-9.2,0-17.9,3.6-24.5,10.1S15.4,40.8,15.4,50S19,67.9,25.5,74.5C32.1,81,40.8,84.6,50,84.6S67.9,81,74.5,74.5
		C81,67.9,84.6,59.2,84.6,50S81,32.1,74.5,25.5C67.9,19,59.2,15.4,50,15.4L50,15.4z"/>
</g>
</svg>
