<?xml version="1.0" encoding="utf-8"?>
<!-- Generator: Adobe Illustrator 17.1.0, SVG Export Plug-In . SVG Version: 6.00 Build 0)  -->
<!DOCTYPE svg PUBLIC "-//W3C//DTD SVG 1.1//EN" "http://www.w3.org/Graphics/SVG/1.1/DTD/svg11.dtd">
<svg version="1.1" id="Layer_1" xmlns="http://www.w3.org/2000/svg" xmlns:xlink="http://www.w3.org/1999/xlink" x="0px" y="0px"
	 viewBox="0 0 176.4 195.8" enable-background="new 0 0 176.4 195.8" xml:space="preserve">
<path fill="#FFFFFF" d="M161.8,113.9l-33.9-8.2c-8.4-2.4-16.6-5.4-24.7-9.3c7.1-3.5,14.3-6.3,22.2-8.7l34.7-8.2
	c5.2-1.9,9.7-5.8,12.3-11.1c5.6-11.2,1-24.9-10.2-30.4c-8.4-4.2-18.2-2.7-24.9,3.1l-23.4,25.9c-5.8,5.8-11.9,11.3-18.7,16.3
	c0.6-7.5,1.8-14.9,3.6-22.6l10.4-34.1c0.9-5.5-0.1-11.3-3.4-16.2C98.9-0.2,84.8-3.2,74.3,3.7c-7.9,5.1-11.5,14.3-9.9,23L75,60
	c1.9,7.2,3.4,14.4,4.4,22c-4.2-3.2-8.5-6.6-12.7-10.5L39.3,41c-4.2-3.6-9.7-5.7-15.6-5.5c-12.5,0.4-22.3,11-21.9,23.5
	c0.3,9.4,6.3,17.2,14.6,20.4l26.1,6.3c11.7,3.6,21.5,7.2,30.2,11.1c-5.6,2.8-11.7,5.3-18.2,7.5l-39.9,9.4
	c-5.2,1.9-9.7,5.8-12.3,11.1c-5.6,11.2-1,24.9,10.2,30.5c8.4,4.2,18.2,2.7,24.9-3.1l18-20c8.9-8.7,16.9-15.7,24.6-21.6
	c-0.5,6.2-1.3,12.7-2.6,19.4l-11.9,39.2c-0.9,5.5,0.1,11.2,3.4,16.2c6.9,10.5,21,13.4,31.4,6.5c7.9-5.2,11.5-14.3,9.9-23l-8.2-25.6
	c-3.2-12.7-5.3-23.7-6.4-33.8c6.9,4.8,13.2,10,19.4,16.1l23.8,26.5c4.2,3.6,9.7,5.7,15.6,5.5c12.5-0.4,22.3-11,21.9-23.5
	C176,124.9,170,117.1,161.8,113.9z"/>
</svg>
