<?xml version="1.0" encoding="utf-8"?>
<!-- Generator: Adobe Illustrator 15.0.0, SVG Export Plug-In . SVG Version: 6.00 Build 0)  -->
<!DOCTYPE svg PUBLIC "-//W3C//DTD SVG 1.1//EN" "http://www.w3.org/Graphics/SVG/1.1/DTD/svg11.dtd">
<svg version="1.1" id="Layer_1" xmlns="http://www.w3.org/2000/svg" xmlns:xlink="http://www.w3.org/1999/xlink" x="0px" y="0px"
	 width="1584px" height="584.28px" viewBox="0 0 1584 584.28" enable-background="new 0 0 1584 584.28" xml:space="preserve">
<g>
	<path fill="#FFFFFF" d="M541.411,191.214c0,16.677,13.515,30.19,30.189,30.19c16.669,0,30.174-13.514,30.174-30.19
		c0-16.67-13.505-30.179-30.174-30.179C554.926,161.036,541.411,174.544,541.411,191.214z"/>
	<path fill="#FFFFFF" d="M819.131,191.214c0,16.677,13.504,30.19,30.186,30.19c16.669,0,30.182-13.514,30.182-30.19
		c0-16.67-13.513-30.179-30.182-30.179C832.635,161.036,819.131,174.544,819.131,191.214z"/>
	<path fill="#FFFFFF" d="M363.914,268.137h51.792v48.4h0.972c1.604-6.781,4.752-13.379,9.428-19.844
		c4.688-6.459,10.332-12.338,16.948-17.667c6.612-5.319,13.952-9.604,22.022-12.825c8.055-3.223,16.286-4.846,24.68-4.846
		c6.455,0,10.9,0.174,13.311,0.499c2.421,0.311,4.929,0.64,7.504,0.966v53.235c-3.867-0.639-7.823-1.209-11.853-1.691
		c-4.032-0.486-7.981-0.729-11.86-0.729c-9.359,0-18.145,1.861-26.383,5.568c-8.225,3.715-15.406,9.201-21.539,16.449
		c-6.128,7.268-10.969,16.211-14.514,26.871c-3.553,10.646-5.324,22.908-5.324,36.781v119.072h-55.184V268.137z"/>
	<path fill="#FFFFFF" d="M544.003,268.137h55.184v250.24h-55.184V268.137z"/>
	<path fill="#FFFFFF" d="M634.043,268.137h41.611v-75.022h55.18v75.022h49.859v41.138h-49.859v133.592
		c0,5.811,0.242,10.816,0.734,15.006c0.488,4.201,1.6,7.75,3.383,10.646c1.77,2.898,4.434,5.08,7.99,6.533
		c3.549,1.457,8.381,2.178,14.525,2.178c3.872,0,7.748-0.074,11.611-0.238c3.871-0.16,7.747-0.727,11.615-1.693v42.596
		c-6.125,0.645-12.096,1.277-17.909,1.936c-5.802,0.639-11.772,0.969-17.909,0.969c-14.521,0-26.225-1.377-35.087-4.121
		c-8.882-2.734-15.81-6.777-20.819-12.094c-5.006-5.32-8.389-12.016-10.17-20.092c-1.771-8.059-2.817-17.264-3.145-27.592V309.275
		h-41.611V268.137z"/>
	<path fill="#FFFFFF" d="M821.831,268.137h55.185v250.24h-55.185V268.137z"/>
	<g>
		<path fill="#FFFFFF" d="M1341.306,459.977c0,6.838,0.892,11.721,2.688,14.65c1.793,2.934,5.289,4.396,10.501,4.396
			c1.627,0,3.585,0,5.861,0c2.281,0,4.886-0.32,7.82-0.975v38.592c-1.95,0.652-4.473,1.387-7.569,2.195
			c-3.104,0.814-6.278,1.545-9.528,2.205c-3.262,0.645-6.523,1.135-9.773,1.463c-3.25,0.316-6.023,0.488-8.305,0.488
			c-11.409,0-20.848-2.281-28.341-6.832c-7.492-4.566-12.378-12.545-14.654-23.943c-11.074,10.748-24.668,18.561-40.787,23.451
			c-16.129,4.885-31.676,7.324-46.658,7.324c-11.4,0-22.309-1.553-32.729-4.641c-10.433-3.088-19.629-7.65-27.606-13.682
			c-7.978-6.02-14.336-13.674-19.052-22.957c-4.723-9.279-7.085-20.107-7.085-32.488c0-15.635,2.851-28.336,8.547-38.109
			c5.695-9.766,13.197-17.416,22.483-22.959c9.277-5.533,19.701-9.523,31.264-11.967c11.546-2.449,23.205-4.318,34.929-5.625
			c10.089-1.953,19.702-3.33,28.817-4.152c9.123-0.803,17.182-2.195,24.19-4.148c6.997-1.951,12.527-4.965,16.604-9.039
			c4.068-4.068,6.109-10.172,6.109-18.32c0-7.158-1.717-13.02-5.128-17.59c-3.423-4.555-7.658-8.057-12.705-10.504
			c-5.054-2.439-10.674-4.064-16.854-4.887c-6.189-0.807-12.055-1.217-17.582-1.217c-15.641,0-28.511,3.256-38.604,9.768
			c-10.093,6.525-15.793,16.613-17.098,30.297h-55.691c0.98-16.281,4.889-29.807,11.728-40.547
			c6.835-10.754,15.547-19.38,26.132-25.9c10.586-6.513,22.552-11.068,35.911-13.674c13.358-2.606,27.032-3.914,41.037-3.914
			c12.374,0,24.591,1.308,36.646,3.914c12.039,2.605,22.871,6.837,32.482,12.698c9.601,5.858,17.344,13.436,23.21,22.719
			c5.862,9.279,8.789,20.602,8.789,33.951V459.977z M1285.613,389.619c-8.475,5.543-18.895,8.877-31.268,10.016
			c-12.383,1.146-24.752,2.855-37.13,5.133c-5.866,0.979-11.559,2.367-17.098,4.156c-5.543,1.791-10.424,4.229-14.659,7.324
			c-4.23,3.102-7.569,7.166-10.012,12.213c-2.438,5.049-3.666,11.16-3.666,18.322c0,6.188,1.793,11.404,5.378,15.635
			c3.585,4.234,7.893,7.564,12.938,10.016c5.051,2.438,10.582,4.148,16.617,5.127c6.023,0.973,11.482,1.463,16.371,1.463
			c6.181,0,12.857-0.809,20.023-2.441c7.158-1.629,13.925-4.395,20.271-8.301c6.358-3.914,11.646-8.879,15.878-14.902
			c4.23-6.023,6.354-13.441,6.354-22.234V389.619z"/>
	</g>
	<path fill="#FFFFFF" d="M287.537,446.451c-6.561,6.273-14.088,11.365-22.617,15.227c-10.387,4.709-22.385,7.059-36.013,7.059
		c-18.494,0-34.479-3.727-47.94-11.193c-13.467-7.459-24.418-17.438-32.852-29.932c-8.439-12.486-14.683-26.686-18.736-42.588
		c-4.061-15.891-6.084-32.121-6.084-48.666c0-16.551,2.023-32.768,6.084-48.67c4.054-15.893,10.297-30.091,18.736-42.585
		c8.434-12.485,19.385-22.464,32.852-29.93c13.461-7.461,29.446-11.194,47.94-11.194c12.652,0,23.763,1.702,33.337,5.109
		c9.568,3.407,17.925,8.2,25.064,14.356c2.733,2.363,5.271,4.897,7.624,7.59l42.353-38.591c-2.523-2.329-5.132-4.582-7.877-6.714
		c-13.141-10.221-28.312-18.009-45.505-23.363c-17.202-5.352-35.529-8.03-54.996-8.03c-25.963,0-49.239,4.866-69.841,14.601
		c-20.607,9.732-38.045,22.875-52.319,39.421c-14.279,16.55-25.23,35.856-32.851,57.917c-7.628,22.068-11.438,45.427-11.438,70.083
		c0,24.986,3.81,48.51,11.438,70.57c7.62,22.066,18.571,41.367,32.851,57.914c14.274,16.549,31.712,29.613,52.319,39.178
		c20.602,9.566,43.878,14.357,69.841,14.357c21.086,0,40.394-3.406,57.915-10.219c15.684-6.1,29.531-14.492,41.578-25.141
		L287.537,446.451z"/>
	<path fill="#FFFFFF" d="M1072.16,461.189c-1.624,2.047-3.328,4.01-5.203,5.803c-10.547,10.061-23.932,15.086-40.151,15.086
		c-12.009,0-22.229-2.508-30.662-7.541c-8.44-5.029-15.329-11.598-20.685-19.713c-5.354-8.105-9.247-17.355-11.68-27.742
		c-2.434-10.379-3.649-20.758-3.649-31.146c0-19.143,2.265-34.633,6.812-46.48c4.54-11.84,10.22-21.088,17.035-27.74
		c6.812-6.646,14.273-11.195,22.388-13.627c8.104-2.434,15.732-3.65,22.873-3.65c15.574,0,28.472,3.979,38.691,11.924
		c2.887,2.248,5.42,4.832,7.671,7.682l37.777-34.422c-2.521-2.341-5.171-4.55-7.974-6.599c-10.22-7.458-21.898-13.056-35.04-16.791
		c-13.141-3.724-27.013-5.598-41.612-5.598c-20.768,0-38.858,3.493-54.266,10.467c-15.414,6.982-28.311,16.548-38.692,28.714
		c-10.388,12.168-18.173,26.525-23.36,43.07c-5.194,16.549-7.786,34.238-7.786,53.051c0,18.494,2.677,35.693,8.03,51.588
		c5.352,15.9,13.215,29.611,23.603,41.125c10.382,11.52,23.119,20.607,38.206,27.258c15.086,6.643,32.525,9.973,52.319,9.973
		c32.44,0,58.478-8.676,78.112-26.039c1.744-1.541,3.41-3.166,5.041-4.828L1072.16,461.189z"/>
	<path fill="#FFFFFF" d="M1535.245,168.16l-34.813-8.418c-8.616-2.489-17.046-5.591-25.375-9.587
		c7.263-3.583,14.715-6.455,22.779-8.936l35.578-8.434c5.312-1.999,9.92-5.908,12.649-11.389
		c5.741-11.52,1.057-25.517-10.464-31.257c-8.635-4.302-18.658-2.752-25.555,3.148l-24.01,26.577
		c-5.915,5.998-12.216,11.599-19.164,16.743c0.597-7.735,1.839-15.312,3.683-23.194l10.641-34.977
		c0.951-5.598-0.104-11.551-3.463-16.668c-7.057-10.765-21.506-13.77-32.271-6.71c-8.066,5.285-11.777,14.728-10.158,23.656
		l10.858,34.131c1.988,7.354,3.526,14.824,4.501,22.541c-4.361-3.238-8.718-6.801-13.082-10.775l-28.042-31.324
		c-4.293-3.714-9.927-5.9-16.045-5.687c-12.87,0.455-22.933,11.25-22.482,24.116c0.341,9.638,6.489,17.704,14.962,20.95
		l26.834,6.491c11.973,3.668,22.103,7.396,31.039,11.431c-5.776,2.828-11.971,5.421-18.673,7.748l-40.908,9.699
		c-5.312,2-9.919,5.911-12.651,11.392c-5.742,11.524-1.057,25.517,10.467,31.261c8.631,4.3,18.654,2.748,25.55-3.154l18.507-20.481
		c9.104-8.938,17.353-16.16,25.292-22.154c-0.469,6.374-1.351,12.991-2.707,19.904l-12.239,40.224
		c-0.948,5.597,0.106,11.546,3.464,16.668c7.059,10.768,21.509,13.773,32.276,6.713c8.064-5.288,11.771-14.728,10.153-23.656
		l-8.367-26.309c-3.31-13.065-5.455-24.351-6.587-34.683c7.062,4.879,13.502,10.301,19.873,16.542l24.392,27.24
		c4.291,3.713,9.924,5.896,16.045,5.683c12.862-0.453,22.927-11.246,22.475-24.109
		C1549.864,179.474,1543.719,171.409,1535.245,168.16z"/>
</g>
</svg>
