<?xml version="1.0" encoding="utf-8"?>
<!-- Generator: Adobe Illustrator 17.1.0, SVG Export Plug-In . SVG Version: 6.00 Build 0)  -->
<!DOCTYPE svg PUBLIC "-//W3C//DTD SVG 1.1//EN" "http://www.w3.org/Graphics/SVG/1.1/DTD/svg11.dtd">
<svg version="1.1" id="Layer_1" xmlns="http://www.w3.org/2000/svg" xmlns:xlink="http://www.w3.org/1999/xlink" x="0px" y="0px"
	 viewBox="14.9 14.9 70.2 70.2" enable-background="new 14.9 14.9 70.2 70.2" xml:space="preserve">
<g>
	<g display="none">
		<path display="inline" stroke="#000000" stroke-miterlimit="10" d="M50,19.7c16.7,0,30.3,13.6,30.3,30.3S66.7,80.3,50,80.3
			c-16.7,0-30.3-13.6-30.3-30.3S33.3,19.7,50,19.7 M50,15.8c-9.1,0-17.7,3.6-24.2,10s-10,15-10,24.2s3.6,17.7,10,24.2
			c6.5,6.5,15,10,24.2,10s17.7-3.6,24.2-10c6.5-6.5,10-15,10-24.2s-3.6-17.7-10-24.2C67.7,19.4,59.1,15.8,50,15.8L50,15.8z"/>
	</g>
	<polyline fill="none" stroke="#03B3B0" stroke-width="3" stroke-linecap="round" points="50,26.1 50,50 60.6,60.6 	"/>
</g>
<g>
	<path fill="#03B3B0" stroke="#03B3B0" d="M50,19.3C67,19.3,80.7,33,80.7,50S67,80.7,50,80.7C33,80.7,19.3,67,19.3,50
		S33,19.3,50,19.3 M50,15.4c-9.2,0-17.9,3.6-24.5,10.1S15.4,40.8,15.4,50S19,67.9,25.5,74.5C32.1,81,40.8,84.6,50,84.6
		S67.9,81,74.5,74.5C81,67.9,84.6,59.2,84.6,50S81,32.1,74.5,25.5C67.9,19,59.2,15.4,50,15.4L50,15.4z"/>
</g>
</svg>
